<svg version="1.1" xmlns="http://www.w3.org/2000/svg" xmlns:xlink="http://www.w3.org/1999/xlink" width="154.9916" height="244.67384" viewBox="0,0,154.9916,244.67384"><g transform="translate(-163.46668,-29.02616)"><g data-paper-data="{&quot;isPaintingLayer&quot;:true}" fill-rule="nonzero" stroke-width="2" stroke-linecap="butt" stroke-linejoin="miter" stroke-miterlimit="10" stroke-dasharray="" stroke-dashoffset="0" style="mix-blend-mode: normal"><path d="M299.46037,31.0628c11.79427,4.95951 0.51933,46.49147 -6.01009,62.01918c-6.52942,15.52772 -5.84078,-0.82883 -17.63505,-5.78834c-11.79428,-4.95951 -31.56603,-16.51569 -25.0366,-32.04341c6.52943,-15.52771 36.88747,-29.14694 48.68175,-24.18743z" data-paper-data="{&quot;index&quot;:null}" fill="#5646bb" stroke="#0a007a"/><path d="M229.31739,56.58356c6.52943,15.52772 -13.24232,27.08389 -25.0366,32.0434c-11.79428,4.95951 -11.10562,21.31606 -17.63505,5.78834c-6.52943,-15.52772 -17.80437,-57.05967 -6.0101,-62.01918c11.79428,-4.95951 42.15232,8.65971 48.68175,24.18743z" fill="#5646bb" stroke="#0a007a"/><path d="M209.2,61.30003c0,10.21727 -5.52182,18.5 -12.33333,18.5c-6.81151,0 -12.33333,-8.28273 -12.33333,-18.5c0,-10.21727 5.52182,-18.5 12.33333,-18.5c6.81151,0 12.33333,8.28273 12.33333,18.5z" fill="#51497f" stroke="#30256f"/><path d="M295.2,59.9667c0,10.21727 -5.52182,18.5 -12.33333,18.5c-6.81151,0 -12.33333,-8.28273 -12.33333,-18.5c0,-10.21727 5.52182,-18.5 12.33333,-18.5c6.81151,0 12.33333,8.28273 12.33333,18.5z" fill="#51497f" stroke="#30256f"/><path d="M297.60001,99.40002c0,12.87001 10.56963,60.83867 4.6814,70.8119c-10.03053,16.98929 -38.19347,25.1881 -57.6814,25.1881c-20.94551,0 -58.20522,-1.93666 -67.81035,-21.09508c-4.57772,-9.13073 8.81035,-63.67467 8.81035,-74.90492c0,-34.79394 25.07205,-63 56,-63c30.92795,0 56,28.20606 56,63z" fill="#9966ff" stroke="#431f8c"/><path d="M277.2,128.13333c0,9.94113 -16.56546,18 -37,18c-20.43454,0 -37,-8.05887 -37,-18c0,-9.94113 16.56546,-18 37,-18c20.43454,0 37,8.05887 37,18z" fill="#51497f" stroke="#30256f"/><path d="M257.53334,109.30003c0,4.51032 -7.31269,8.16666 -16.33334,8.16666c-9.02065,0 -16.33333,-3.65634 -16.33333,-8.16666c0,-4.51032 7.31268,-8.16667 16.33333,-8.16667c9.02065,0 16.33334,3.65635 16.33334,8.16667z" fill="#1c163d" stroke="#130a43"/><path d="M176.30001,272.7v-110.5h127v110.5z" fill="#2e3b50" stroke="#15233a"/><path d="M288.8,171.45002c0,13.11676 -27.89389,36.25 -47.5,36.25c-19.60611,0 -45,-24.13324 -45,-37.25c0,-13.11676 24.39389,-6.25 44,-6.25c19.60611,0 48.5,-5.86676 48.5,7.25z" fill="#c9d3e4" stroke="#15233a"/><path d="M314.19187,178.09488c-8.60647,-2.61531 -26.45396,11.36954 -16.09889,22.01344c5.84705,6.01014 -15.71155,-0.21068 -29.85879,3.68045c-12.98353,3.57105 -19.76702,6.22559 -23.7697,8.90378c-11.12161,7.44146 7.21331,-22.87014 14.24911,-36.6846c7.03579,-13.81446 -1.69581,-18.24596 13.07533,-14.78889c14.77114,3.45707 57.76397,21.54369 42.40294,16.87582z" fill="#2e3b50" stroke="#15233a"/><path d="M211.33014,161.21906c15.15735,-3.45707 6.19745,0.97444 13.41721,14.78889c7.21976,13.81446 26.03408,44.12606 14.62167,36.6846c-4.10734,-2.67819 -11.0682,-5.33272 -24.3912,-8.90378c-14.51715,-3.89112 -36.63943,2.3297 -30.6395,-3.68044c10.62582,-10.6439 -7.68831,-24.62876 -16.51982,-22.01344c-15.76267,4.66787 28.35428,-13.41876 43.51164,-16.87583z" data-paper-data="{&quot;index&quot;:null}" fill="#2e3b50" stroke="#15233a"/><path d="M232.4,86.50293c0,10.16365 -8.56255,18.40291 -19.125,18.40291c-10.56245,0 -19.125,-8.23926 -19.125,-18.40291c0,-10.16365 8.56255,-18.40292 19.125,-18.40292c10.56245,0 19.125,8.23927 19.125,18.40292z" fill="#ffffff" stroke="#ffffff"/><path d="M230.29167,86.93043c0,6.14417 -3.07804,11.125 -6.875,11.125c-3.79696,0 -6.875,-4.98083 -6.875,-11.125c0,-6.14417 3.07804,-11.125 6.875,-11.125c3.79696,0 6.875,4.98083 6.875,11.125z" fill="#000000" stroke="#000000"/><path d="M290.9,85.75293c0,10.16365 -8.56255,18.40291 -19.125,18.40291c-10.56245,0 -19.125,-8.23926 -19.125,-18.40291c0,-10.16365 8.56255,-18.40292 19.125,-18.40292c10.56245,0 19.125,8.23927 19.125,18.40292z" fill="#ffffff" stroke="#ffffff"/><path d="M268.125,86.0971c0,6.14417 -3.07804,11.125 -6.875,11.125c-3.79696,0 -6.875,-4.98083 -6.875,-11.125c0,-6.14417 3.07804,-11.125 6.875,-11.125c3.79696,0 6.875,4.98083 6.875,11.125z" fill="#000000" stroke="#000000"/><path d="M252.93179,135.16438c0,3.76014 -4.84446,6.80834 -10.82039,6.80834c-5.97594,0 -10.82039,-3.0482 -10.82039,-6.80834c0,-3.76014 4.84446,-6.80834 10.82039,-6.80834c5.97594,0 10.82039,3.0482 10.82039,6.80834z" fill="#2a0000" stroke="#15001b"/></g></g></svg>